<?xml version="1.0" encoding="utf-8"?>
<!-- Generator: Adobe Illustrator 22.0.1, SVG Export Plug-In . SVG Version: 6.00 Build 0)  -->
<svg version="1.1" xmlns="http://www.w3.org/2000/svg" xmlns:xlink="http://www.w3.org/1999/xlink" x="0px" y="0px"
	 viewBox="0 0 604.8 123" style="enable-background:new 0 0 604.8 123;" xml:space="preserve">
<style type="text/css">
	.st0{display:none;}
	.st1{display:inline;fill:none;}
	.st2{fill:#FFFFFF;}
</style>
<g id="Exclusion_zone" class="st0">
	<rect id="XMLID_9_" x="-0.1" class="st1" width="18.9" height="18.5"/>
	<rect id="XMLID_8_" x="-0.1" y="104.5" class="st1" width="18.9" height="18.5"/>
	<rect id="XMLID_7_" x="586.1" class="st1" width="18.9" height="18.5"/>
	<rect id="XMLID_6_" x="586.1" y="104.5" class="st1" width="18.9" height="18.5"/>
</g>
<g id="Artwork">
	<g>
		<path id="XMLID_139_" class="st2" d="M77.1,104.4H60.8v-8.7h-0.4c-4.3,7-11.8,10.3-19,10.3c-18.2,0-22.7-10.2-22.7-25.6V42.2h17.1
			v35.1c0,10.2,3,15.3,10.9,15.3C56,92.6,60,87.4,60,74.8V42.2h17.1V104.4z"/>
		<path id="XMLID_136_" class="st2" d="M88.4,61.3c1-16,15.3-20.8,29.2-20.8c12.4,0,27.3,2.8,27.3,17.7v32.4
			c0,5.7,0.6,11.3,2.2,13.8h-17.3c-0.6-1.9-1.1-4-1.2-6c-5.4,5.7-13.4,7.7-20.9,7.7c-11.8,0-21.2-5.9-21.2-18.6
			c0-14.1,10.6-17.4,21.2-18.9c10.5-1.6,20.2-1.2,20.2-8.2c0-7.3-5.1-8.4-11.1-8.4c-6.5,0-10.7,2.6-11.3,9.4H88.4z M127.8,73.9
			c-2.9,2.5-8.9,2.6-14.2,3.6c-5.3,1.1-10.1,2.9-10.1,9.1c0,6.4,4.9,7.9,10.5,7.9c13.3,0,13.8-10.6,13.8-14.3V73.9z"/>
		<path id="XMLID_134_" class="st2" d="M158,18.5h17.1v85.9H158V18.5z"/>
		<path id="XMLID_131_" class="st2" d="M212.8,61.8H194V43.3h18.9V61.8z M194,85.9h18.9v18.5H194V85.9z"/>
		<g id="XMLID_1_">
			<path id="XMLID_129_" class="st2" d="M240.6,33.2h6v30h-6V33.2z"/>
			<path id="XMLID_126_" class="st2" d="M260.9,40.8c6.8,0,11.3,4.5,11.3,11.5c0,6.9-4.4,11.4-11.3,11.4c-6.8,0-11.2-4.5-11.2-11.4
				C249.7,45.4,254.1,40.8,260.9,40.8z M260.9,59.2c4.1,0,5.3-3.5,5.3-6.9c0-3.5-1.2-7-5.3-7c-4,0-5.3,3.5-5.3,7
				C255.6,55.8,256.8,59.2,260.9,59.2z"/>
			<path id="XMLID_124_" class="st2" d="M275.4,41.4h5.7v3h0.1c1.5-2.4,4.1-3.6,6.6-3.6c6.3,0,7.9,3.6,7.9,8.9v13.4h-6V50.9
				c0-3.6-1-5.3-3.8-5.3c-3.2,0-4.6,1.8-4.6,6.2v11.4h-6V41.4z"/>
			<path id="XMLID_121_" class="st2" d="M315.1,60.4L315.1,60.4c-1.5,2.4-3.9,3.4-6.7,3.4c-6.6,0-9.7-5.6-9.7-11.6
				c0-5.8,3.2-11.3,9.6-11.3c2.6,0,5.1,1.1,6.4,3.2h0.1V33.2h6v30h-5.7V60.4z M309.9,45.3c-3.9,0-5.2,3.4-5.2,6.9c0,3.4,1.6,7,5.2,7
				c3.9,0,5.1-3.4,5.1-7C315,48.7,313.8,45.3,309.9,45.3z"/>
			<path id="XMLID_118_" class="st2" d="M335.2,40.8c6.8,0,11.3,4.5,11.3,11.5c0,6.9-4.4,11.4-11.3,11.4c-6.8,0-11.2-4.5-11.2-11.4
				C324,45.4,328.4,40.8,335.2,40.8z M335.2,59.2c4.1,0,5.3-3.5,5.3-6.9c0-3.5-1.2-7-5.3-7c-4,0-5.3,3.5-5.3,7
				C329.9,55.8,331.1,59.2,335.2,59.2z"/>
			<path id="XMLID_116_" class="st2" d="M349.7,41.4h5.7v3h0.1c1.5-2.4,4.1-3.6,6.6-3.6c6.3,0,7.9,3.6,7.9,8.9v13.4h-6V50.9
				c0-3.6-1-5.3-3.8-5.3c-3.2,0-4.6,1.8-4.6,6.2v11.4h-6V41.4z"/>
			<path id="XMLID_114_" class="st2" d="M398.6,49.1c-0.4-2.4-1.9-3.7-4.4-3.7c-3.8,0-5.1,3.9-5.1,7.1c0,3.1,1.2,6.8,5,6.8
				c2.8,0,4.4-1.8,4.7-4.4h5.8c-0.8,5.8-4.7,8.9-10.5,8.9c-6.6,0-11-4.6-11-11.1c0-6.8,4-11.8,11.1-11.8c5.1,0,9.8,2.7,10.2,8.2
				H398.6z"/>
			<path id="XMLID_111_" class="st2" d="M418,40.8c6.8,0,11.3,4.5,11.3,11.5c0,6.9-4.4,11.4-11.3,11.4c-6.8,0-11.2-4.5-11.2-11.4
				C406.7,45.4,411.1,40.8,418,40.8z M418,59.2c4.1,0,5.3-3.5,5.3-6.9c0-3.5-1.2-7-5.3-7c-4,0-5.2,3.5-5.2,7
				C412.7,55.8,413.9,59.2,418,59.2z"/>
			<path id="XMLID_109_" class="st2" d="M432.5,33.2h6v30h-6V33.2z"/>
			<path id="XMLID_107_" class="st2" d="M442.8,33.2h6v30h-6V33.2z"/>
			<path id="XMLID_104_" class="st2" d="M457.8,53.7c0.2,3.8,2,5.5,5.3,5.5c2.4,0,4.3-1.5,4.7-2.8h5.3c-1.7,5.1-5.3,7.3-10.2,7.3
				c-6.8,0-11.1-4.7-11.1-11.4c0-6.5,4.5-11.5,11.1-11.5c7.4,0,11,6.2,10.5,12.9H457.8z M467.5,50c-0.5-3-1.8-4.6-4.7-4.6
				c-3.8,0-4.9,2.9-5,4.6H467.5z"/>
			<path id="XMLID_101_" class="st2" d="M497.3,61.8c0,3.6-1.3,9.6-11.3,9.6c-4.3,0-9.3-2-9.6-7h5.9c0.5,2.2,2.4,3,4.5,3
				c3.3,0,4.8-2.3,4.8-5.4v-2.9h-0.1c-1.3,2.3-3.9,3.4-6.5,3.4c-6.5,0-9.3-5-9.3-10.9c0-5.6,3.2-10.8,9.3-10.8c2.9,0,5,1,6.5,3.5
				h0.1v-2.9h5.7V61.8z M491.6,52c0-3.5-1.2-6.7-5.1-6.7c-3.4,0-4.8,2.9-4.8,6.2c0,3.1,1.2,6.5,4.8,6.5
				C489.9,58,491.6,55.1,491.6,52z"/>
			<path id="XMLID_98_" class="st2" d="M506.4,53.7c0.2,3.8,2,5.5,5.3,5.5c2.4,0,4.3-1.5,4.7-2.8h5.3c-1.7,5.1-5.3,7.3-10.2,7.3
				c-6.8,0-11.1-4.7-11.1-11.4c0-6.5,4.5-11.5,11.1-11.5c7.4,0,11,6.2,10.5,12.9H506.4z M516.1,50c-0.5-3-1.8-4.6-4.7-4.6
				c-3.8,0-4.9,2.9-5,4.6H516.1z"/>
			<path id="XMLID_95_" class="st2" d="M249.4,82.2c6.8,0,11.3,4.5,11.3,11.5c0,6.9-4.4,11.4-11.3,11.4c-6.8,0-11.2-4.5-11.2-11.4
				C238.2,86.7,242.6,82.2,249.4,82.2z M249.4,100.6c4.1,0,5.3-3.5,5.3-6.9c0-3.5-1.2-7-5.3-7c-4,0-5.2,3.5-5.2,7
				C244.2,97.1,245.4,100.6,249.4,100.6z"/>
			<path id="XMLID_93_" class="st2" d="M265,86.7h-3.6v-4h3.6v-1.7c0-3.8,2.4-6.6,7.3-6.6c1,0,2.1,0.1,3.2,0.2v4.5
				c-0.7-0.1-1.4-0.1-2.2-0.1c-1.6,0-2.3,0.7-2.3,2.5v1.3h4.1v4H271v17.7h-6V86.7z"/>
			<path id="XMLID_91_" class="st2" d="M301.2,90.4c-0.4-2.4-1.9-3.7-4.4-3.7c-3.8,0-5.1,3.9-5.1,7.1c0,3.1,1.2,6.8,5,6.8
				c2.8,0,4.4-1.8,4.7-4.4h5.8c-0.8,5.8-4.7,8.9-10.5,8.9c-6.6,0-11-4.6-11-11.1c0-6.8,4-11.8,11.1-11.8c5.1,0,9.8,2.7,10.2,8.2
				H301.2z"/>
			<path id="XMLID_88_" class="st2" d="M320.6,82.2c6.8,0,11.3,4.5,11.3,11.5c0,6.9-4.4,11.4-11.3,11.4c-6.8,0-11.2-4.5-11.2-11.4
				C309.3,86.7,313.8,82.2,320.6,82.2z M320.6,100.6c4.1,0,5.3-3.5,5.3-6.9c0-3.5-1.2-7-5.3-7c-4,0-5.2,3.5-5.2,7
				C315.3,97.1,316.5,100.6,320.6,100.6z"/>
			<path id="XMLID_86_" class="st2" d="M335.1,82.7h5.6v2.9h0.1c1.6-2.2,3.8-3.5,6.6-3.5c2.7,0,5.2,1,6.3,3.6
				c1.3-1.9,3.5-3.6,6.6-3.6c4.6,0,7.9,2.1,7.9,7.8v14.5h-6V92.2c0-2.9-0.3-5.3-3.7-5.3c-3.4,0-4,2.8-4,5.5v12.1h-6V92.3
				c0-2.5,0.2-5.4-3.6-5.4c-1.2,0-4,0.8-4,5v12.6h-6V82.7z"/>
			<path id="XMLID_84_" class="st2" d="M372.6,82.7h5.6v2.9h0.1c1.6-2.2,3.8-3.5,6.6-3.5c2.7,0,5.2,1,6.3,3.6
				c1.3-1.9,3.5-3.6,6.6-3.6c4.6,0,7.9,2.1,7.9,7.8v14.5h-6V92.2c0-2.9-0.3-5.3-3.7-5.3c-3.4,0-4,2.8-4,5.5v12.1h-6V92.3
				c0-2.5,0.2-5.4-3.6-5.4c-1.2,0-4,0.8-4,5v12.6h-6V82.7z"/>
			<path id="XMLID_82_" class="st2" d="M430.3,104.5h-5.7v-3h-0.1c-1.5,2.4-4.1,3.6-6.6,3.6c-6.3,0-7.9-3.6-7.9-8.9V82.7h6V95
				c0,3.6,1.1,5.3,3.8,5.3c3.2,0,4.6-1.8,4.6-6.2V82.7h6V104.5z"/>
			<path id="XMLID_80_" class="st2" d="M434.2,82.7h5.7v3h0.1c1.5-2.4,4.1-3.6,6.6-3.6c6.3,0,7.9,3.6,7.9,8.9v13.4h-6V92.2
				c0-3.6-1.1-5.3-3.8-5.3c-3.2,0-4.6,1.8-4.6,6.2v11.4h-6V82.7z"/>
			<path id="XMLID_77_" class="st2" d="M464.7,79.4h-6v-4.9h6V79.4z M458.8,82.7h6v21.7h-6V82.7z"/>
			<path id="XMLID_75_" class="st2" d="M483.7,90.4c-0.4-2.4-1.9-3.7-4.4-3.7c-3.8,0-5.1,3.9-5.1,7.1c0,3.1,1.2,6.8,5,6.8
				c2.8,0,4.4-1.8,4.7-4.4h5.8c-0.8,5.8-4.7,8.9-10.5,8.9c-6.6,0-11-4.6-11-11.1c0-6.8,4-11.8,11.1-11.8c5.1,0,9.8,2.7,10.2,8.2
				H483.7z"/>
			<path id="XMLID_72_" class="st2" d="M492.2,89.4c0.3-5.6,5.3-7.3,10.2-7.3c4.3,0,9.5,1,9.5,6.2v11.3c0,2,0.2,3.9,0.8,4.8h-6
				c-0.2-0.7-0.4-1.4-0.4-2.1c-1.9,2-4.7,2.7-7.3,2.7c-4.1,0-7.4-2.1-7.4-6.5c0-4.9,3.7-6.1,7.4-6.6c3.7-0.5,7.1-0.4,7.1-2.9
				c0-2.6-1.8-2.9-3.9-2.9c-2.3,0-3.7,0.9-3.9,3.3H492.2z M505.9,93.8c-1,0.9-3.1,0.9-5,1.3c-1.8,0.4-3.5,1-3.5,3.2
				c0,2.2,1.7,2.8,3.7,2.8c4.7,0,4.8-3.7,4.8-5V93.8z"/>
			<path id="XMLID_70_" class="st2" d="M523.6,82.7h4.4v4h-4.4v10.8c0,2,0.5,2.5,2.5,2.5c0.6,0,1.2,0,1.8-0.2v4.7
				c-1,0.2-2.3,0.2-3.5,0.2c-3.7,0-6.8-0.8-6.8-5.2V86.7H514v-4h3.6v-6.5h6V82.7z"/>
			<path id="XMLID_67_" class="st2" d="M536.4,79.4h-6v-4.9h6V79.4z M530.4,82.7h6v21.7h-6V82.7z"/>
			<path id="XMLID_64_" class="st2" d="M551.1,82.2c6.8,0,11.3,4.5,11.3,11.5c0,6.9-4.4,11.4-11.3,11.4c-6.8,0-11.2-4.5-11.2-11.4
				C539.9,86.7,544.3,82.2,551.1,82.2z M551.1,100.6c4.1,0,5.3-3.5,5.3-6.9c0-3.5-1.2-7-5.3-7c-4,0-5.2,3.5-5.2,7
				C545.9,97.1,547.1,100.6,551.1,100.6z"/>
			<path id="XMLID_62_" class="st2" d="M565.7,82.7h5.7v3h0.1c1.5-2.4,4.1-3.6,6.6-3.6c6.3,0,7.9,3.6,7.9,8.9v13.4h-6V92.2
				c0-3.6-1.1-5.3-3.8-5.3c-3.2,0-4.6,1.8-4.6,6.2v11.4h-6V82.7z"/>
		</g>
	</g>
</g>
</svg>
